PathFileType	4	(X/Y/Z)	E:\Qualisys_Data\Carbon_Farble_Plate\Data\Amateur_Runner\S1\T2\S1T2V11_c3d.trc
DataRate	CameraRate	NumFrames	NumMarkers	Units	OrigDataRate	OrigDataStartFrame	OrigNumFrames
200.000000	200.000000	4	39	mm	200.000000	234	312
Frame#	Time	LSHO			RSHO			LICST			RICST			LASIS			LHEEL			RASIS			LTROC			RTROC			SACR			LTH1			LSK4			LTH2			LTH3			RHM5			LSK2			LTH4			RTH1			LTOE			RTH2			RTH3			RTH4			LLEP			RLEP			LSK1			LSK3			RSK1			LHM5			RSK2			LFT1			RSK3			RSK4			LLME			RLME			RTOE			RHEEL			RFT1			RFT2			LFT2			
		X1	Y1	Z1	X2	Y2	Z2	X3	Y3	Z3	X4	Y4	Z4	X5	Y5	Z5	X6	Y6	Z6	X7	Y7	Z7	X8	Y8	Z8	X9	Y9	Z9	X10	Y10	Z10	X11	Y11	Z11	X12	Y12	Z12	X13	Y13	Z13	X14	Y14	Z14	X15	Y15	Z15	X16	Y16	Z16	X17	Y17	Z17	X18	Y18	Z18	X19	Y19	Z19	X20	Y20	Z20	X21	Y21	Z21	X22	Y22	Z22	X23	Y23	Z23	X24	Y24	Z24	X25	Y25	Z25	X26	Y26	Z26	X27	Y27	Z27	X28	Y28	Z28	X29	Y29	Z29	X30	Y30	Z30	X31	Y31	Z31	X32	Y32	Z32	X33	Y33	Z33	X34	Y34	Z34	X35	Y35	Z35	X36	Y36	Z36	X37	Y37	Z37	X38	Y38	Z38	X39	Y39	Z39	

235	1.17	1508.814086914062	1469.517578125	-544.4896850585938	1554.396362304688	1484.638671875	-224.7379455566406	1499.5634765625	1015.295715332031	-491.7966003417969	1512.102783203125	1026.346069335938	-191.77978515625	1545.84619140625	978.4351196289062	-466.1976318359375	1529.717163085938	73.60607147216797	-365.1261901855469	1548.304809570312	976.6785888671876	-203.0232238769531	1447.6435546875	888.2701416015625	-510.3565673828125	1433.372802734375	893.64208984375	-166.6277465820312	1386.321655273438	1035.494750976562	-335.1671142578125	1611.297607421875	768.1707763671875	-485.1068725585938	1542.552612304688	220.2837524414062	-406.7802124023438	1534.9501953125	739.9378662109375	-511.9164733886719	1638.720458984375	668.8035278320312	-468.86376953125	1018.591674804688	221.8255157470703	-188.4701995849609	1554.471435546875	314.8027954101562	-448.4535522460938	1557.8212890625	644.8177490234375	-483.852783203125	1545.053955078125	749.812744140625	-193.9922027587891	1780.653198242188	83.97566986083984	-373.9774169921875	1470.597045898438	755.2449340820312	-168.3066101074219	1535.869384765625	648.9469604492188	-198.8136749267578	1457.223999023438	656.8091430664062	-181.1075439453125	1633.13720703125	513.4891357421875	-442.0623168945312	1453.109497070312	488.9272766113281	-209.6233367919922	1637.61328125	302.5254516601562	-438.2757873535156	1617.662841796875	204.0713806152344	-428.3226928710938	1282.7021484375	416.07763671875	-191.4448394775391	1715.97705078125	50.44408798217773	-442.7060546875	1255.933715820312	489.9706420898438	-213.9484252929688	1539.470458984375	45.5991096496582	-339.5063781738281	1189.867797851562	378.4151916503906	-203.4533843994141	1164.843994140625	450.1297607421875	-233.0250701904297	1579.163452148438	91.88418579101562	-418.9511108398438	1058.14013671875	365.307373046875	-206.6073150634766	1056.878051757812	166.9945983886719	-259.3902893066406	1009.908325195312	414.2004699707031	-253.5388031005859	985.497802734375	395.2145080566406	-284.9578247070312	980.5733032226562	403.9528198242188	-229.3103179931641	1533.697143554688	41.15641784667969	-392.5625305175781
236	1.175	1525.403564453125	1464.07470703125	-546.2077026367188	1568.904541015625	1480.190063476562	-224.8113708496094	1511.7685546875	1010.855529785156	-492.8688049316406	1526.983032226562	1021.09033203125	-191.4659271240234	1559.726196289062	974.2625122070312	-465.7642822265625	1531.244384765625	75.43312072753906	-364.4185485839844	1563.459838867188	972.0079956054688	-203.2564544677734	1461.841186523438	885.0324096679688	-511.9217834472656	1449.418334960938	887.7218627929688	-167.7557678222656	1400.02880859375	1031.024536132812	-335.7984924316406	1626.069458007812	765.094482421875	-486.3966674804688	1550.833129882812	222.9291229248047	-407.7953491210938	1549.358276367188	737.6697387695312	-513.3435668945312	1652.534545898438	665.2645263671875	-469.1277465820312	1041.197021484375	224.5409851074219	-187.4878082275391	1568.47265625	316.5755310058594	-449.7276916503906	1569.5166015625	642.1460571289062	-488.9659729003906	1563.32470703125	745.6277465820312	-193.4736022949219	1782.727294921875	79.18372344970703	-373.8910827636719	1488.796142578125	750.0161743164062	-168.4541931152344	1556.025512695312	644.786376953125	-197.5691680908203	1477.189331054688	651.0887451171875	-180.641845703125	1651.67626953125	513.023681640625	-441.5053405761719	1477.371215820312	484.1820373535156	-208.8094635009766	1650.361083984375	302.0195617675781	-435.9395751953125	1626.6875	203.7137298583984	-426.7868957519531	1307.225219726562	414.2373046875	-190.5417938232422	1716.623901367188	49.50174331665039	-442.3369140625	1281.581909179688	487.951171875	-214.1548614501953	1540.163452148438	47.25771331787109	-339.1256103515625	1213.862915039062	377.6268615722656	-203.6443634033203	1189.770141601562	449.6219177246094	-233.2749633789062	1580.06005859375	94.5063934326172	-417.9017028808594	1081.559204101562	367.1985473632812	-207.1676635742188	1079.897827148438	168.6712799072266	-257.621337890625	1033.970581054688	416.3196105957031	-254.9763031005859	1009.734558105469	396.799072265625	-286.8535766601562	1004.418334960938	406.4043273925781	-230.9083099365234	1534.28955078125	43.3331184387207	-392.4549865722656
237	1.18	1542.007690429688	1459.067260742188	-547.8574829101562	1583.413330078125	1475.598388671875	-224.5041656494141	1526.7607421875	1008.056030273438	-492.95947265625	1541.130859375	1016.591857910156	-191.9613494873047	1572.667724609375	970.7325439453124	-467.497314453125	1533.050659179688	77.54492950439453	-363.6179809570312	1578.203979492188	967.1868286132812	-203.8485870361328	1475.414794921875	883.5252075195312	-512.7307739257812	1465.215209960938	882.1248779296875	-169.0361938476562	1413.438720703125	1026.694702148438	-335.5428771972656	1641.363403320312	763.6456909179688	-488.6069030761719	1558.917114257812	225.9347076416016	-408.6566772460938	1563.959838867188	735.7830200195312	-513.6939697265625	1668.068969726562	664.486572265625	-472.4905700683594	1064.868896484375	227.1012420654297	-186.2818756103516	1582.071411132812	318.4783630371094	-451.4003601074219	1586.694580078125	640.447021484375	-489.7193603515625	1581.775268554688	741.785400390625	-193.4849853515625	1785.36376953125	76.84874725341797	-372.2154235839844	1506.656372070312	745.31884765625	-168.48681640625	1576.587158203125	640.9253540039062	-196.3271789550781	1497.419677734375	645.8826904296875	-180.2655792236328	1669.153198242188	513.4160766601562	-441.0910339355469	1501.768432617188	479.9942016601562	-208.3731231689453	1662.960815429688	300.9562683105469	-434.1365661621094	1634.9228515625	204.1637573242188	-423.8428344726562	1331.49072265625	411.8724670410156	-190.4646911621094	1718.93212890625	48.51668930053711	-441.7244262695312	1307.57568359375	486.3234558105469	-213.9677429199219	1541.242431640625	48.77885055541992	-338.597900390625	1238.168701171875	377.1021118164062	-203.7867126464844	1215.429931640625	449.1851501464844	-233.0685577392578	1582.133178710938	97.93331146240234	-416.1937561035156	1105.642578125	368.9144592285156	-207.6434936523438	1102.189208984375	168.1047515869141	-254.4282989501953	1058.422729492188	417.7518005371094	-256.2618103027344	1034.51318359375	397.9417724609375	-288.339599609375	1028.6474609375	408.6155090332031	-232.3532867431641	1535.362915039062	45.93439865112305	-391.9308776855469
238	1.185	1558.831909179688	1453.956298828125	-549.6302490234375	1598.044799804688	1471.598754882812	-224.2080078125	1539.980712890625	1004.896118164062	-492.9379272460938	1555.967041015625	1011.816650390625	-192.1647338867188	1585.205444335938	968.8810424804688	-469.8148803710938	1535.200073242188	79.3464584350586	-362.2315979003906	1592.718505859375	962.495361328125	-204.42138671875	1489.162353515625	883.0394287109375	-513.4344482421875	1480.68017578125	875.9759521484375	-170.5225677490234	1427.129516601562	1023.171081542969	-334.9420776367188	1655.841430664062	764.5584716796875	-490.7655639648438	1567.083862304688	228.3494415283203	-409.7139282226562	1578.533569335938	734.4865112304688	-513.804443359375	1685.046142578125	666.6505737304688	-472.5654296875	1089.57470703125	229.2184448242188	-185.4355163574219	1594.461059570312	319.0566101074219	-452.6625366210938	1604.807861328125	640.0725708007812	-487.6460571289062	1600.278930664062	738.69580078125	-193.2284240722656	1788.815063476562	73.61078643798828	-370.9807739257812	1525.1298828125	740.2413940429688	-169.3139343261719	1597.338500976562	637.2388305664062	-195.405517578125	1517.912353515625	640.6744995117188	-179.9194030761719	1685.761474609375	513.5714111328125	-441.0642700195312	1526.317626953125	476.120361328125	-208.1915740966797	1674.30615234375	299.3788146972656	-433.0582885742188	1642.56396484375	203.4085998535156	-422.0306396484375	1357.000610351562	409.4603271484375	-190.2505340576172	1720.415283203125	48.37975692749023	-441.6341857910156	1333.967895507812	484.4417114257812	-213.7087249755859	1542.937133789062	50.11474609375	-337.6570129394531	1263.342041015625	375.8903198242188	-205.0776977539062	1241.598510742188	448.9808959960938	-233.2268829345703	1586.298217773438	99.47274780273438	-414.7768249511719	1130.351440429688	370.4886779785156	-208.2652282714844	1127.174194335938	169.0562438964844	-252.1355743408203	1083.244140625	418.9601440429688	-257.8854675292969	1059.562377929688	398.3058776855469	-289.6719055175781	1053.447998046875	409.7168273925781	-234.1985626220703	1536.618774414062	47.95404434204102	-390.8263854980469
